<svg width="68" height="68" viewBox="0 0 68 68" fill="none" xmlns="http://www.w3.org/2000/svg">
<circle cx="34" cy="34" r="34" fill="#DCFCE7"/>
<path d="M34 14C45.0457 14 54 22.9543 54 34C54 45.0457 45.0457 54 34 54C22.9543 54 14 45.0457 14 34C14 22.9543 22.9543 14 34 14ZM42.6339 27.6161C42.1783 27.1605 41.4585 27.1301 40.9676 27.525L40.8661 27.6161L30.75 37.7322L27.1339 34.1161C26.6457 33.628 25.8543 33.628 25.3661 34.1161C24.9105 34.5717 24.8801 35.2915 25.275 35.7824L25.3661 35.8839L29.8661 40.3839C30.3217 40.8395 31.0416 40.8699 31.5324 40.475L31.6339 40.3839L42.6339 29.3839C43.122 28.8957 43.122 28.1043 42.6339 27.6161Z" fill="#22C55E"/>
</svg>

